<?xml version="1.0" encoding="UTF-8"?>
<svg width="1000" height="1000" viewBox="0 0 1000 1000" fill="none" xmlns="http://www.w3.org/2000/svg">
  <defs>
    <linearGradient id="gradient" x1="0%" y1="0%" x2="100%" y2="100%">
      <stop offset="0%" style="stop-color:#40E0D0"/>
      <stop offset="100%" style="stop-color:#4169E1"/>
    </linearGradient>
  </defs>
  <path d="M500 0C776.142 0 1000 223.858 1000 500C1000 776.142 776.142 1000 500 1000C223.858 1000 0 776.142 0 500C0 223.858 223.858 0 500 0ZM350 300C322.386 300 300 322.386 300 350V650C300 677.614 322.386 700 350 700H650C677.614 700 700 677.614 700 650V350C700 322.386 677.614 300 650 300H350ZM400 400H600C613.255 400 624 410.745 624 424V576C624 589.255 613.255 600 600 600H400C386.745 600 376 589.255 376 576V424C376 410.745 386.745 400 400 400Z" fill="url(#gradient)"/>
</svg>
